PathFileType	4	(X/Y/Z)	Patient4_TMGait_0pt4_01_right_39.trc.trc
DataRate	CameraRate	NumFrames	NumMarkers	Units	OrigDataRate	OrigDataStartFrame	OrigNumFrames
74.866310160428	74.866310160428	6	33	mm	74.866310160428	106	       141
Frame#	Time	Sacral			L.Shoulder			Chest			R.Shoulder			Neck			R.ASIS			L.ASIS			R.Thigh.Superior			R.Thigh.Lateral			R.Thigh.Inferior			R.Patella			L.Thigh.Superior			L.Thigh.Lateral			L.Thigh.Inferior			L.Patella			L.Shank.Superior			L.Shank.Lateral			L.Shank.Inferior			R.Shank.Superior			R.Shank.Lateral			R.Shank.Inferior			R.Heel			R.Midfoot.Superior			R.Midfoot.Lateral			R.Toe			L.Heel			L.Midfoot.Lateral			L.Midfoot.Superior			L.Toe			L.Elbow			L.Wrist			R.Elbow			R.Wrist			
		X1	Y1	Z1	X2	Y2	Z2	X3	Y3	Z3	X4	Y4	Z4	X5	Y5	Z5	X6	Y6	Z6	X7	Y7	Z7	X8	Y8	Z8	X9	Y9	Z9	X10	Y10	Z10	X11	Y11	Z11	X12	Y12	Z12	X13	Y13	Z13	X14	Y14	Z14	X15	Y15	Z15	X16	Y16	Z16	X17	Y17	Z17	X18	Y18	Z18	X19	Y19	Z19	X20	Y20	Z20	X21	Y21	Z21	X22	Y22	Z22	X23	Y23	Z23	X24	Y24	Z24	X25	Y25	Z25	X26	Y26	Z26	X27	Y27	Z27	X28	Y28	Z28	X29	Y29	Z29	X30	Y30	Z30	X31	Y31	Z31	X32	Y32	Z32	X33	Y33	Z33	

106	52.262500000000	828.631062554529	1010.565247774419	431.490912689774	1029.645982503828	1432.954965435809	238.042587309436	1118.590215587928	1371.275369972566	409.457146918473	1021.410812572672	1451.564641475328	573.312439431407	999.199486845372	1500.016358665938	391.445865919252	1053.934676018817	956.423886809562	558.814996334477	1050.415196642882	964.709153550806	284.637442244225	1140.881063906230	787.559835740482	529.386097600641	1107.355944750359	665.687867291312	605.295378878604	1193.954615668631	628.455210410039	523.341889393538	1223.779672060895	527.115323735804	548.644206067764	1088.562606870019	748.194228238069	316.546093680219	994.373180154317	636.737678456682	255.352413818735	1072.842026839852	555.615096314265	320.177624138309	1068.102187148401	487.559790288766	331.010302139614	1041.387954603860	416.642409874658	323.144329182127	950.434635062102	303.571501007756	272.792007773473	996.734011305643	191.941067289393	345.684173961611	1170.914819270292	440.980759997828	558.721326840908	1071.933463937724	364.411356413057	622.987206899641	1094.585497151983	255.956625875823	574.954225448915	927.841469120097	129.522678086241	550.647245082190	1105.198456395850	129.052227240024	587.790740635512	1003.864387814814	92.975370267092	623.969366802890	1204.557973175868	46.993807265095	615.620901913829	866.577032222301	38.603434117239	390.686608768784	938.984476535415	35.428810952604	308.357091604116	1022.719630740610	95.831040774489	334.222494965749	1151.135282653267	43.146738354171	303.240518415445	1050.588069748155	1086.009238519897	108.227241722422	1238.627089275931	902.843453798051	124.922867344096	926.903938701183	1123.158780478222	705.468036517900	947.963148014979	864.397670524072	732.201442151724	
107	52.275857142857	827.156977327602	1010.519315615852	430.343064589826	1031.151554937551	1432.806967389024	238.598418156450	1118.030513404187	1370.796548018169	410.944671075361	1019.203534565773	1451.155692121064	573.753198821488	999.090685432502	1499.815685844417	391.932121869130	1051.549937705411	956.326491701745	559.592718664442	1049.958426705114	964.366295398457	285.223980755131	1138.232261496410	787.371468240670	530.653220119089	1104.546154994629	665.774792121514	606.682319922237	1191.024124912727	628.424138060937	524.745165253304	1222.062308611377	529.259548589415	550.104021229205	1086.542268047282	747.591382818902	317.493546521497	992.075403858438	636.624974319600	255.300339248316	1069.635308158023	555.078551634002	320.484085896093	1064.423659075543	487.025641696984	331.185312409391	1037.465866000126	416.194107823234	323.236613936233	946.194838327186	303.461750890250	272.670243695795	991.699672786538	191.626694472932	345.681281691648	1173.297246175502	442.286085957481	560.389668756753	1078.935332336763	360.460992822358	624.939960711215	1107.707389779806	253.377366788277	576.904360940393	948.549079752163	117.757658532402	552.461615463655	1125.553178409478	126.884324460874	589.891936317556	1026.392525203725	85.395857216591	625.949760135158	1229.261805180155	50.351874024291	617.936920890265	861.230885495071	38.590171424304	390.632851806975	933.618764765356	35.382628763163	308.321564894608	1017.379485243853	95.769949241719	334.229100972316	1145.805484170030	43.002143362051	303.261581602004	1055.185100669090	1086.784787953044	107.568200269868	1249.285178928753	910.481901010898	127.252060434565	919.797402839064	1124.230769554709	705.144801854350	937.244779195301	865.445033283218	733.508612461814	
108	52.289214285714	825.768055940083	1010.455638748049	429.356850832441	1032.564204373258	1432.569575120996	239.360124833641	1117.528118407641	1370.240976778602	412.543346039136	1017.214809077978	1450.690125976766	574.377101248420	999.004033891858	1499.550876781940	392.605445657677	1049.257268031423	956.052225449309	560.484934144296	1049.550640394400	964.019287549148	285.890862711901	1135.243673861786	786.694469533636	532.096409354133	1101.076635582066	665.461641897818	608.254688711282	1187.529835459530	627.866837766031	526.437617401340	1219.582454602385	530.967797093220	551.694348684516	1084.547511254702	746.962499451213	318.393631633623	989.775789374865	636.492956125468	255.301004410834	1066.446268711339	554.529048949947	320.799331450548	1060.774502872374	486.483678301755	331.365376950383	1033.561580177269	415.728584066896	323.330026281657	941.941916905530	303.348263220811	272.554629017907	986.691564175071	191.315626043783	345.686653292638	1175.061299879827	443.426281077375	562.174668330195	1085.690576496355	356.538956571902	627.072070812156	1120.534990531441	251.189713856998	578.961467924098	969.535582691961	106.738764427195	554.444356885205	1145.761962145341	125.500942178035	592.175931301801	1049.020587803198	78.625758854462	628.031957464261	1253.500287642262	54.579128413303	620.201295237296	855.884548825778	38.576575224988	390.575992632953	928.250503977077	35.332582003997	308.284242260372	1012.034871545410	95.710092375634	334.228169950422	1140.469393288355	42.875241423556	303.278557567587	1059.671768773964	1087.459074140326	107.246832106910	1259.433128867100	918.153624275384	129.866469712520	913.196582830349	1125.139210878287	704.809645949348	927.636909651041	866.354143992849	734.443899202177	
109	52.302571428571	824.488691932376	1010.385397133310	428.547892073325	1033.854015110331	1432.272936068215	240.324187577922	1117.078241555793	1369.639430248065	414.241243216294	1015.449170285682	1450.192528389685	575.185468715203	998.920965396597	1499.243158983408	393.466215127373	1047.090702451962	955.634541814132	561.488950113196	1049.214888942566	963.694340118186	286.640123013973	1131.982570369918	785.592769496506	533.694629456112	1097.051708165824	664.791212746420	609.985275881532	1183.583298037127	626.850610666080	528.376349432091	1216.444043491689	532.243978705220	553.356390169149	1082.595668667649	746.310087060343	319.267695951215	987.482577932215	636.346792969192	255.375337889680	1063.275182654851	553.965021134982	321.154155552074	1057.148579712917	485.935920529314	331.580599615851	1029.671240677438	415.253513090629	323.448821966351	937.674683269914	303.241164806884	272.459009176891	981.715119194579	191.017132019439	345.710264133864	1176.218091971437	444.406686030265	564.024185929721	1092.097130458251	352.761108343240	629.327743292435	1132.819025727568	249.460106485694	581.066470006238	990.344078389830	96.711771376761	556.570317333498	1165.413321653952	124.947820290089	594.576140280269	1071.281499695983	72.812767902311	630.166599629010	1276.792175465643	59.595080269472	622.313433340625	850.533695360179	38.567285387625	390.517914377674	922.878949741625	35.283109375438	308.246420137319	1006.686741812873	95.653958625787	334.221881985015	1135.125747709076	42.765260950378	303.291802167471	1064.040433146038	1088.044985030428	107.288056646360	1269.037081699447	925.798583514410	132.746092542249	907.143841027389	1125.885778628250	704.474706794928	919.160326336252	867.098908260561	735.045348916142	
110	52.315928571429	823.343634347081	1010.311295657934	427.936275771821	1034.997102097893	1431.949262677582	241.484419861798	1116.672125781425	1369.023572806108	416.029438726010	1013.896252129779	1449.683445274507	576.178702956616	998.819007939998	1498.912101245565	394.514642679852	1045.087302622963	955.109669565340	562.601194098949	1048.961744922447	963.405166764006	287.478396298294	1128.549798158455	784.145435562844	535.429528518901	1092.615183563180	663.813833318943	611.841368203660	1179.320579798168	625.450875119039	530.508306807943	1212.774271930773	533.096936858615	555.038170311814	1080.698728433574	745.638953333469	320.149693937793	985.204150716389	636.193276801852	255.541127779189	1060.119289456319	553.386110383204	321.575961996248	1053.536199290781	485.385130154223	331.854570860948	1025.787753852454	414.777365809646	323.612886151994	933.389158214508	303.150780789066	272.395852628483	976.769876589284	190.739411765869	345.758679617760	1176.785845369712	445.213979961799	565.889062093995	1098.014936876951	349.211397130405	631.635492662311	1144.278797595931	248.191360078338	583.155361542226	1010.432910968940	87.835279803591	558.782241724128	1184.040757157960	125.172812415743	597.013760174798	1092.628131645898	68.006992475671	632.286410425339	1298.622970157923	65.210212267713	624.194935046728	845.175550173380	38.567594820055	390.460714782524	917.503587506830	35.239078590699	308.209084504362	1001.335956044742	95.604421520889	334.212253090051	1129.773579768679	42.670943408241	303.301899379095	1068.271085818729	1088.557760542927	107.711708488208	1278.062403694579	933.352434836290	135.867301965941	901.678546291107	1126.466328976707	704.159240778091	911.836576097509	867.657701145819	735.360615025433	
111	52.329285714286	822.357829587662	1010.226188416178	427.546029096060	1035.973452768807	1431.628959360987	242.833045257038	1116.296381516945	1368.423678103571	417.902313323104	1012.531126229233	1449.177308371163	577.356682749995	998.671907634718	1498.573555134332	395.750723252531	1043.286538503101	954.511981319209	563.817303722918	1048.794239754123	963.154553291992	288.414321093763	1125.075265173458	782.440151748826	537.283770566652	1087.940665327162	662.582199621274	613.783495151366	1174.895037443952	623.745200753181	532.773414632283	1208.719144912610	533.538775539057	556.699891480374	1078.864807188470	744.954723005294	321.080559875394	982.947969210138	636.040182067940	255.812318033822	1056.972938184732	552.792965095803	322.086221395070	1049.924537310643	484.834978434958	332.204076264218	1021.901705571313	414.309037417938	323.836911582048	929.079634257119	303.086813098435	272.375784408537	971.850433513168	190.488683541057	345.835172507495	1176.787913726041	445.815080757890	567.726365668331	1103.268438030249	345.936564391528	633.909941884750	1154.612711120126	247.322310981016	585.162859254960	1029.200983776361	80.177834680041	560.985795898401	1201.139645021286	126.026081620885	599.401419978884	1112.452852425895	64.162956264314	634.307843934161	1318.459079208049	71.131593474050	625.803579475425	839.809235522989	38.582715928115	390.406468931527	912.124359657125	35.205455833077	308.172911471453	995.982973433901	95.564313378298	334.201335050908	1124.412213282610	42.590630104082	303.309636621514	1072.334366136308	1089.012584819982	108.530210453890	1286.475889252518	940.747000208289	139.203094173388	896.833218268124	1126.870009336321	703.889983271011	905.686356687578	868.010779453854	735.445513777245	
